<svg version="1.1" id="Layer_1" xmlns="http://www.w3.org/2000/svg" xmlns:xlink="http://www.w3.org/1999/xlink" x="0px" y="0px"
	 width="100%" viewBox="0 0 2398 912" enable-background="new 0 0 2398 912" xml:space="preserve">
M2398.000000,913.000000 
L2398,913 L0,913 L0,0 L2398,0 Z" style="display:none;"/>
<!-- Background removed -->
M721.655701,429.432831 
	C719.670776,429.288025 717.685303,429.011658 715.701111,429.021027 
	C706.713989,429.063385 699.566406,425.187927 694.089417,418.384308 
	C689.290161,412.422668 688.079468,405.125793 688.069214,397.703705 
	C688.008301,353.376801 688.071594,309.049774 687.995056,264.722931 
	C687.985901,259.424805 687.635559,254.097763 687.013245,248.834991 
	C683.112854,215.852554 655.034058,185.385056 622.193665,180.249512 
	C607.686401,177.980881 592.719238,178.638428 577.959106,178.007355 
	C569.085632,177.627975 561.828918,180.853973 555.867310,187.513565 
	C548.573242,195.661560 547.092407,205.083252 550.341736,214.972321 
	C553.496704,224.574188 560.306946,231.595673 570.606079,232.809525 
	C581.128174,234.049652 591.898315,234.467331 602.462585,233.770462 
	C618.691467,232.699951 632.545715,247.381683 632.302612,263.436188 
	C631.619141,308.585999 632.019958,353.753021 632.127319,398.912903 
	C632.139893,404.201752 632.641907,409.547272 633.519714,414.765137 
	C635.965881,429.305389 641.587524,442.499420 651.200867,453.831024 
	C653.280701,456.282623 653.274231,458.278259 650.894836,460.719849 
	C648.718994,462.952545 647.069275,465.725189 645.336060,468.357513 
	C635.573547,483.184296 632.115540,499.770416 632.088440,517.211975 
	C632.018982,561.872070 631.683777,606.537354 632.269714,651.189880 
	C632.474365,666.788513 618.569153,681.013245 603.347656,680.200928 
	C592.760132,679.635864 582.079407,680.389587 571.460815,680.945312 
	C559.154541,681.589417 549.085938,695.711914 548.937073,705.385742 
	C548.700012,720.798218 556.223022,733.115601 570.174377,734.846191 
	C584.603210,736.635986 599.512939,736.889099 613.982422,735.470337 
	C636.354309,733.276855 654.995789,722.683289 669.395203,705.144775 
	C680.843445,691.200562 687.679260,675.165039 687.851440,657.180481 
	C688.301331,610.191467 688.002441,563.195496 688.050293,516.202332 
	C688.069763,497.090332 698.552490,486.199982 717.510193,484.903503 
	C726.397827,484.295746 733.809265,480.342682 739.019409,472.934296 
	C749.124390,458.565887 743.935852,435.812469 721.655701,429.432831 
M187.960632,446.693207 
	C180.909103,464.151672 192.916367,484.331085 214.377335,485.064850 
	C226.027252,485.463135 234.891571,490.989838 239.287201,501.925171 
	C241.150818,506.561462 241.829315,511.953491 241.850937,517.007141 
	C242.041199,561.494507 241.809616,605.984009 242.099792,650.470337 
	C242.153336,658.676758 242.932373,667.178833 245.199905,675.016968 
	C253.812378,704.787659 273.556030,724.007874 303.142914,732.956055 
	C320.885498,738.322083 339.205658,736.140015 357.235840,735.619751 
	C370.026062,735.250671 380.759216,722.219482 381.023712,709.561829 
	C381.337830,694.529602 372.817169,682.911804 358.672821,681.103333 
	C348.504120,679.803162 338.045441,679.514160 327.816772,680.224182 
	C311.189331,681.378357 297.430420,666.576477 297.686035,650.349487 
	C298.397186,605.205994 298.073364,560.043335 297.861816,514.889587 
	C297.775787,496.530518 292.960815,479.426788 282.161682,464.257538 
	C277.008942,457.019592 277.018738,456.907440 282.262329,449.530457 
	C293.051544,434.351746 297.797852,417.244324 297.871704,398.877869 
	C298.054474,353.390656 298.269012,307.898407 297.746399,262.416473 
	C297.573608,247.378372 311.341827,233.000565 326.542145,233.796204 
	C337.294464,234.359009 348.209503,234.085526 358.904114,232.877243 
	C371.013000,231.509186 380.151398,219.917892 381.128204,208.145355 
	C382.366760,193.218445 370.914398,180.501572 360.857025,179.215576 
	C350.526276,177.894638 339.972748,178.234329 329.513184,178.019226 
	C307.023407,177.556732 287.011475,183.843765 270.015106,199.197723 
	C252.577164,214.950516 242.423248,234.284042 242.149185,257.733521 
	C241.619553,303.048737 242.000397,348.374329 241.918762,393.695465 
	C241.910690,398.162231 241.577637,402.666412 240.936417,407.086639 
	C239.318939,418.236847 227.983780,428.829193 216.800446,428.857574 
	C203.629776,428.890991 194.115067,434.213226 187.960632,446.693207 
M1770.592041,383.852783 
	C1768.967773,380.023773 1767.795654,375.899353 1765.556519,372.472046 
	C1764.120972,370.274841 1761.218750,367.918396 1758.788696,367.700562 
	C1751.849854,367.078522 1744.802246,367.269318 1737.828979,367.679047 
	C1735.700806,367.804047 1732.183960,369.424805 1731.952759,370.804474 
	C1731.607178,372.866852 1733.001343,376.062439 1734.723145,377.471466 
	C1739.890869,381.700684 1741.634277,386.840088 1741.352417,393.304993 
	C1740.119263,421.586090 1739.057861,449.874817 1737.967773,478.162048 
	C1737.703491,485.019257 1735.473145,490.688538 1729.645386,494.916534 
	C1727.975464,496.128082 1726.450195,499.116364 1726.762817,500.968750 
	C1726.999390,502.371460 1730.209839,504.110291 1732.186035,504.230316 
	C1739.155640,504.653656 1746.175171,504.676880 1753.149414,504.325684 
	C1755.116821,504.226624 1758.268555,502.618591 1758.596069,501.182556 
	C1759.023926,499.305939 1757.776733,496.230743 1756.209473,494.869019 
	C1751.513428,490.788940 1749.712402,485.994873 1749.932007,479.868164 
	C1750.725708,457.727295 1751.250977,435.576996 1751.949829,413.432495 
	C1752.074463,409.484070 1752.543335,405.546478 1752.853394,401.603882 
	C1754.223999,402.609863 1754.733032,403.614899 1755.167603,404.651154 
	C1767.202637,433.347412 1779.231567,462.046234 1791.257568,490.746307 
	C1793.563843,496.250458 1798.084717,498.001099 1802.627075,494.714142 
	C1804.394287,493.435425 1805.753052,491.267059 1806.697876,489.226135 
	C1819.912964,460.679565 1833.020386,432.083130 1846.170898,403.506592 
	C1846.812744,402.111389 1847.607788,400.786682 1848.556885,399.006531 
	C1848.920288,399.981079 1849.115234,400.265717 1849.121460,400.554474 
	C1849.689209,426.698242 1850.279419,452.841614 1850.766602,478.986938 
	C1850.867065,484.383698 1848.995972,488.832611 1844.689209,492.597351 
	C1842.495483,494.514984 1841.706543,498.039764 1840.282593,500.838104 
	C1842.986328,502.077911 1845.647705,504.264038 1848.401245,504.387054 
	C1858.211548,504.825165 1868.063721,504.811737 1877.875488,504.392914 
	C1880.418091,504.284393 1883.948120,502.700134 1885.116943,500.686493 
	C1886.939087,497.547180 1884.347290,494.743256 1881.538940,492.895416 
	C1876.198242,489.381012 1873.894287,484.343658 1873.693604,478.106995 
	C1872.809692,450.636444 1871.998169,423.162811 1870.923828,395.699554 
	C1870.621460,387.970428 1871.477905,381.184387 1878.600952,376.409668 
	C1879.949585,375.505646 1880.817627,372.516754 1880.428833,370.830841 
	C1880.129517,369.532806 1877.565186,368.022858 1875.913208,367.902069 
	C1869.779907,367.453400 1863.601318,367.671478 1857.451416,367.386047 
	C1852.163574,367.140686 1848.928101,369.105774 1846.645874,374.165436 
	C1833.917358,402.385101 1820.886841,430.468506 1807.942383,458.590637 
	C1807.158691,460.293365 1806.227905,461.928467 1804.704834,464.871918 
	C1793.046753,437.192810 1781.962402,410.875977 1770.592041,383.852783 
M1483.416870,380.130524 
	C1488.665405,385.346832 1488.798950,392.138519 1488.831787,398.790161 
	C1488.953125,423.454437 1488.909058,448.119751 1488.865601,472.784546 
	C1488.849854,481.682190 1487.965088,490.154022 1478.901123,495.239075 
	C1477.552734,495.995514 1476.646729,499.067291 1476.974243,500.795441 
	C1477.230835,502.149658 1479.597290,503.314087 1481.242798,504.122314 
	C1482.361084,504.671509 1483.853516,504.571259 1485.178467,504.570251 
	C1503.509766,504.556641 1521.848145,504.802338 1540.170044,504.369446 
	C1552.610840,504.075500 1564.541138,501.088837 1575.496704,494.816528 
	C1604.466919,478.230347 1612.515381,440.367218 1604.035645,413.309723 
	C1595.241333,385.248199 1570.086670,369.687408 1540.251709,368.109436 
	C1522.466431,367.168732 1504.607910,367.497986 1486.782837,367.528320 
	C1483.246826,367.534332 1478.439331,366.211487 1476.860107,371.076172 
	C1475.263794,375.993134 1479.944336,377.409790 1483.416870,380.130524 
M2221.694336,399.262604 
	C2217.276367,392.571625 2212.136719,392.057068 2206.952393,398.762268 
	C2200.187256,407.511505 2191.910400,410.099579 2181.120850,408.845398 
	C2167.560059,407.269104 2154.989746,411.039429 2144.210938,419.627747 
	C2128.243408,432.350861 2125.816162,455.461700 2141.768311,468.075195 
	C2142.362793,468.545166 2142.771484,469.250458 2143.276611,469.858124 
	C2125.265869,483.322418 2124.758301,488.521057 2139.850830,505.049438 
	C2138.426270,506.161591 2136.982422,507.215729 2135.618896,508.365051 
	C2125.969971,516.499878 2126.520996,529.894897 2137.106934,536.762085 
	C2141.098145,539.351379 2145.598389,541.537170 2150.173096,542.778076 
	C2167.632324,547.513977 2185.163818,546.870605 2202.418213,541.688660 
	C2211.833252,538.861145 2220.247314,534.125732 2225.523438,525.302185 
	C2234.145264,510.882874 2227.554443,494.757202 2211.274658,491.021790 
	C2206.483154,489.922363 2201.388184,489.730225 2196.442383,489.805664 
	C2186.127197,489.963013 2175.809326,491.026398 2165.512451,490.801880 
	C2160.746826,490.697937 2155.730225,489.066803 2151.382080,486.975281 
	C2147.902100,485.301453 2147.554932,481.409332 2149.304688,477.756042 
	C2150.930908,474.361237 2153.400146,474.285278 2156.775635,475.144928 
	C2169.606934,478.412811 2182.130371,477.454773 2194.323242,471.975555 
	C2216.657715,461.938873 2222.452148,434.493256 2206.687988,419.118835 
	C2206.290771,418.731415 2206.206299,418.023407 2205.927002,417.346405 
	C2213.971924,413.877869 2222.547363,411.139069 2221.694336,399.262604 
M1262.230835,385.231018 
	C1253.508301,397.560913 1244.785767,409.890839 1235.555054,422.938965 
	C1226.348022,410.394165 1217.611450,398.665100 1209.098755,386.775940 
	C1206.810425,383.580139 1207.290771,380.437439 1210.310059,377.383209 
	C1211.944580,375.729767 1213.757812,372.426971 1213.109985,370.839691 
	C1212.415771,369.138611 1208.948608,367.723938 1206.652954,367.664001 
	C1194.999512,367.359955 1183.332031,367.439240 1171.672974,367.613708 
	C1168.815552,367.656464 1164.666382,367.566681 1164.829102,371.576721 
	C1164.923340,373.897034 1167.510132,376.401459 1169.478271,378.301880 
	C1173.758057,382.434235 1179.074341,385.670502 1182.697510,390.272491 
	C1193.717163,404.269287 1204.080322,418.781433 1214.834106,432.990692 
	C1216.833130,435.631836 1216.526978,437.559235 1214.661011,440.042114 
	C1209.759766,446.564026 1205.331909,453.453156 1200.255493,459.829834 
	C1189.920288,472.812775 1183.181885,489.196136 1166.272827,496.124603 
	C1165.078247,496.614075 1163.883545,499.260529 1164.165405,500.591309 
	C1164.449463,501.932526 1166.541260,503.805695 1167.899902,503.855957 
	C1176.692139,504.181366 1185.520386,504.433044 1194.294189,503.943085 
	C1198.293823,503.719757 1199.418945,500.197144 1197.375977,496.930359 
	C1192.979980,489.901001 1192.995361,489.211029 1197.723389,482.621613 
	C1205.393677,471.931702 1213.057007,461.236816 1220.747437,450.561523 
	C1221.772949,449.138031 1222.940674,447.816925 1224.455200,445.935669 
	C1234.266357,459.241455 1243.735352,471.894653 1252.963257,484.721344 
	C1255.484253,488.225494 1255.061523,491.713806 1251.598022,494.957550 
	C1250.017456,496.437866 1248.266113,499.554321 1248.850098,501.043365 
	C1249.504639,502.712952 1252.690186,504.282990 1254.813599,504.336273 
	C1266.966919,504.641174 1279.137207,504.663483 1291.288208,504.313629 
	C1293.483887,504.250427 1295.617065,502.011963 1297.779175,500.777802 
	C1296.392334,498.557861 1295.377930,495.947571 1293.543213,494.196991 
	C1289.362671,490.207947 1283.992065,487.255981 1280.502686,482.790436 
	C1268.302368,467.177460 1256.753418,451.056915 1244.801880,435.246429 
	C1242.925903,432.764740 1243.071533,431.154938 1244.861450,428.754578 
	C1252.427612,418.608398 1259.870117,408.366821 1267.189819,398.041077 
	C1273.391724,389.292145 1279.598755,380.723358 1290.137817,376.494873 
	C1291.742798,375.850952 1293.281738,372.936218 1293.249146,371.100250 
	C1293.229248,369.984497 1290.179932,368.075378 1288.415894,367.983887 
	C1280.613281,367.579102 1272.777222,367.519196 1264.967773,367.775024 
	C1263.156494,367.834381 1260.503052,369.244568 1259.876221,370.726501 
	C1259.259033,372.186035 1260.166138,375.035156 1261.390381,376.371094 
	C1263.819214,379.021576 1264.116943,381.525604 1262.230835,385.231018 
M1021.949646,437.486298 
	C1021.101257,434.964783 1020.304749,432.424408 1019.396362,429.924683 
	C1011.665771,408.650604 992.929504,404.735870 975.072754,411.558899 
	C969.254211,413.782135 964.354126,418.408844 958.552307,422.255615 
	C958.552307,420.634064 958.547668,418.904694 958.553040,417.175354 
	C958.599854,402.017761 958.699036,386.860046 958.668701,371.702606 
	C958.658325,366.492889 956.877380,364.571228 952.530884,365.945496 
	C944.788452,368.393555 937.159180,371.297485 929.710632,374.535492 
	C925.990051,376.152863 925.584045,380.219421 928.915588,382.607117 
	C934.642517,386.711639 936.078247,392.409760 936.100281,398.766266 
	C936.193054,425.583557 936.240662,452.401367 936.152283,479.218506 
	C936.133240,484.983124 934.752747,490.288666 930.038330,494.483429 
	C928.369141,495.968689 927.004395,499.216644 927.464417,501.205658 
	C927.806152,502.683441 931.283081,504.270966 933.420044,504.353851 
	C942.566650,504.708405 951.740845,504.713196 960.889282,504.394592 
	C963.044617,504.319519 966.532288,502.854553 966.917542,501.378998 
	C967.428650,499.421326 965.675598,496.735474 964.570557,494.524963 
	C962.895752,491.174713 959.469482,488.011200 959.363586,484.686279 
	C958.935913,471.256317 959.377991,457.791351 959.792847,444.348358 
	C959.871643,441.792847 961.065613,439.183044 962.121216,436.762238 
	C965.965942,427.944977 973.733215,423.054504 983.052490,423.458679 
	C992.313416,423.860291 996.816650,429.838226 999.566345,437.769592 
	C1000.164124,439.493927 1000.710693,441.256317 1001.056396,443.044556 
	C1003.518188,455.779572 1005.777649,468.555725 1008.411133,481.254547 
	C1009.542725,486.711151 1008.320862,490.892151 1004.269409,494.754486 
	C1002.602722,496.343445 1002.077881,499.130096 1001.033691,501.371948 
	C1003.331116,502.425659 1005.595398,504.293091 1007.931946,504.388397 
	C1016.744385,504.747803 1025.587769,504.725494 1034.402222,504.390930 
	C1036.564453,504.308838 1040.126343,502.822968 1040.436523,501.410004 
	C1040.875366,499.410736 1039.463623,496.296875 1037.828857,494.692688 
	C1033.961182,490.897430 1031.772095,486.604980 1030.769897,481.312500 
	C1028.047607,466.935883 1025.022583,452.616638 1021.949646,437.486298 
M870.817078,505.264618 
	C880.286499,503.564911 889.417236,500.558167 896.862122,494.495087 
	C902.298584,490.067596 906.814697,484.398315 911.168152,478.834320 
	C912.203125,477.511505 910.946655,474.395752 910.744202,472.104767 
	C908.715637,472.680267 906.592651,473.047821 904.693848,473.909302 
	C903.557373,474.424957 902.792542,475.735718 901.824829,476.651154 
	C876.217651,500.876038 838.112976,494.870575 822.665771,464.019928 
	C814.136353,446.985321 812.246948,428.979218 817.132019,410.613037 
	C820.910645,396.407043 829.071716,385.281464 843.448486,380.106934 
	C862.192993,373.360291 880.386780,379.959839 893.140381,397.688171 
	C895.568665,401.063690 897.777527,404.658417 900.619507,407.645996 
	C901.824036,408.912201 904.752197,409.758087 906.252258,409.164886 
	C907.626221,408.621490 909.162109,405.676605 908.855652,404.144196 
	C906.612671,392.930023 904.145752,381.747223 901.266479,370.680176 
	C900.104797,366.214935 896.590759,365.614441 892.068420,366.526306 
	C887.334961,367.480713 882.146362,368.104736 877.492798,367.180603 
	C861.229919,363.951050 845.615295,365.203979 830.773071,372.606232 
	C800.793884,387.557648 784.766113,422.529938 792.277527,455.522827 
	C795.274109,468.685059 800.647583,480.491486 810.811829,489.591797 
	C827.804626,504.805756 848.038757,508.447784 870.817078,505.264618 
M2081.553223,503.210114 
	C2093.125000,503.501892 2104.708008,504.200134 2116.262695,503.878998 
	C2120.689453,503.755951 2121.456055,498.631775 2117.410889,495.274261 
	C2112.420410,491.132294 2110.291748,485.834015 2109.223633,479.780029 
	C2108.154297,473.722290 2107.125244,467.652985 2105.853516,461.636353 
	C2103.142578,448.812225 2101.767578,435.615845 2095.328613,423.812775 
	C2091.279541,416.390503 2085.401123,411.104340 2077.068604,409.515930 
	C2062.247559,406.690521 2049.376221,410.507141 2039.212891,422.082825 
	C2038.089111,423.362732 2037.012939,424.684540 2035.914795,425.987000 
	C2034.883667,422.227936 2034.899536,418.954742 2034.880249,415.681732 
	C2034.842773,409.343170 2033.094360,407.890900 2026.879761,409.771118 
	C2021.320923,411.452911 2015.804565,413.386597 2010.475586,415.686707 
	C2004.515747,418.259247 2003.906372,422.109406 2008.823486,426.158417 
	C2013.355713,429.890442 2015.082642,434.538147 2015.068359,440.165405 
	C2015.035400,453.159363 2015.123901,466.153961 2015.027466,479.147308 
	C2014.984253,484.964996 2013.520874,490.177887 2008.884155,494.381775 
	C2007.211182,495.898682 2005.581543,499.324280 2006.220703,501.012329 
	C2006.873535,502.737000 2010.297852,504.273956 2012.573730,504.370728 
	C2021.552856,504.752472 2030.566406,504.757385 2039.546021,504.386383 
	C2041.801880,504.293182 2045.268066,502.717896 2045.837280,501.032990 
	C2046.432983,499.269684 2044.273926,496.524170 2043.205566,494.261627 
	C2041.406860,490.452606 2038.098999,486.748322 2037.929321,482.889984 
	C2037.382446,470.455292 2037.540161,457.943451 2038.304688,445.515350 
	C2038.730347,438.597473 2042.145264,432.419769 2047.691772,427.859894 
	C2059.499023,418.152679 2074.872070,423.619568 2078.818848,439.482605 
	C2082.107910,452.701385 2084.166992,466.222778 2086.940186,479.574921 
	C2088.261475,485.934784 2087.663086,491.411530 2081.989746,495.617096 
	C2079.512207,497.453705 2078.182617,499.949554 2081.553223,503.210114 
M1080.756592,409.023193 
	C1070.372437,408.954590 1061.458740,413.518829 1052.859741,418.486542 
	C1049.387939,420.492279 1050.889038,423.888885 1053.624268,425.911377 
	C1059.038330,429.914825 1060.411255,435.426514 1060.450073,441.717285 
	C1060.514771,452.205322 1060.347534,462.719543 1061.036011,473.172821 
	C1061.964355,487.267487 1066.826416,499.395874 1081.499023,504.499268 
	C1096.004883,509.544678 1108.607056,505.142792 1119.803223,495.488129 
	C1121.481689,494.040833 1123.019409,492.430511 1125.484497,490.069855 
	C1125.729736,493.793701 1125.791992,496.238953 1126.072021,498.659058 
	C1126.552979,502.813873 1128.338379,506.769257 1132.916382,506.418365 
	C1141.809692,505.736664 1150.173706,502.827026 1157.143921,496.972382 
	C1159.685059,494.838043 1159.692383,491.642700 1156.578857,490.444092 
	C1147.846924,487.082367 1147.482544,480.192444 1147.587280,472.474976 
	C1147.844604,453.495117 1147.783081,434.510529 1147.781738,415.527832 
	C1147.781250,409.221466 1145.776733,407.420929 1139.825562,409.249023 
	C1133.169922,411.293518 1126.618774,413.809631 1120.260986,416.654266 
	C1114.303589,419.319794 1114.066528,422.458130 1119.063232,426.586731 
	C1122.748169,429.631409 1124.927490,433.389099 1124.953735,438.189697 
	C1125.004395,447.513428 1125.415771,456.869995 1124.790405,466.153198 
	C1124.116455,476.155579 1119.480469,484.304626 1110.421997,489.315369 
	C1098.486450,495.917572 1086.392212,490.196533 1084.039185,476.814148 
	C1083.350952,472.899780 1082.948975,468.884857 1082.923584,464.912781 
	C1082.818359,448.428528 1082.958252,431.942688 1082.860107,415.458344 
	C1082.848022,413.427063 1081.945923,411.401062 1080.756592,409.023193 
M1435.921997,419.591980 
	C1428.031738,410.326263 1417.646484,408.109375 1406.132812,408.992584 
	C1393.906494,409.930420 1383.062134,414.094208 1374.593018,423.158600 
	C1373.095703,424.761108 1373.089111,427.756317 1372.394165,430.108429 
	C1374.687500,429.944092 1377.126709,430.223267 1379.244629,429.525909 
	C1384.119263,427.920715 1388.702393,425.311768 1393.643799,424.048615 
	C1411.197876,419.561096 1422.301025,427.617462 1424.381226,446.378448 
	C1422.343750,446.124512 1420.413086,445.862427 1418.477295,445.646057 
	C1406.241943,444.278381 1394.183594,444.469330 1382.766968,449.907990 
	C1371.850586,455.108276 1364.933228,463.408417 1364.352295,475.753967 
	C1363.803711,487.412140 1369.497192,496.274719 1379.662231,501.245178 
	C1395.445190,508.962769 1411.260010,508.057404 1426.257935,498.521362 
	C1429.019775,496.765381 1431.479980,494.534760 1434.424072,492.256470 
	C1435.271362,494.054871 1436.037476,495.470856 1436.621704,496.958282 
	C1439.052490,503.146484 1443.623657,506.161804 1450.194580,505.844391 
	C1457.375854,505.497498 1463.595093,503.004639 1467.308228,496.418823 
	C1468.692871,493.963043 1468.685425,491.259430 1464.879028,491.026031 
	C1458.665039,490.645020 1456.372192,486.500732 1455.125610,481.324036 
	C1452.983276,472.427277 1451.119141,463.460876 1448.838745,454.600739 
	C1445.784668,442.734467 1444.339355,430.252319 1435.921997,419.591980 
M1904.706055,438.210785 
	C1898.517090,453.462006 1897.760010,468.785156 1905.688232,483.533600 
	C1915.368042,501.540161 1936.361816,510.063782 1957.482300,505.407501 
	C1970.845825,502.461365 1982.156372,496.389496 1989.466675,484.374512 
	C1991.023926,481.815216 1993.425171,478.324646 1989.950684,476.030365 
	C1988.741577,475.231995 1984.894653,477.245544 1983.007202,478.858124 
	C1974.019409,486.536591 1964.080811,490.949768 1951.971802,490.041626 
	C1940.419067,489.175201 1927.959961,479.617798 1925.714355,468.942749 
	C1933.714722,466.041412 1941.833008,463.201904 1949.873169,460.156372 
	C1961.226074,455.856079 1972.526123,451.416168 1983.838257,447.009155 
	C1987.927246,445.416168 1990.828979,442.964966 1989.655884,437.988647 
	C1986.205933,423.353241 1977.179077,413.825043 1962.674194,410.197876 
	C1938.486206,404.149353 1916.671631,414.690338 1904.706055,438.210785 
M1622.782349,449.390717 
	C1622.529053,454.204376 1621.918701,459.030701 1622.088745,463.829346 
	C1622.612793,478.603088 1628.691772,490.780518 1641.218750,498.732788 
	C1658.521118,509.716492 1676.592163,508.817169 1694.474487,499.893921 
	C1702.068237,496.104553 1708.383423,490.586517 1711.915405,482.668274 
	C1712.765137,480.763336 1711.939453,478.111176 1711.884277,475.802673 
	C1709.859985,476.448730 1707.615845,476.734375 1705.853271,477.809479 
	C1700.907104,480.826202 1696.485229,484.888580 1691.272461,487.247742 
	C1675.439209,494.413422 1657.238281,488.473785 1649.022583,474.182190 
	C1647.022827,470.703522 1646.988525,468.641357 1651.432251,467.270691 
	C1658.581909,465.065460 1665.619263,462.468506 1672.619263,459.813171 
	C1683.822266,455.563446 1695.005249,451.251648 1706.097290,446.722778 
	C1711.468994,444.529541 1712.715942,441.861420 1710.866821,436.459869 
	C1709.427002,432.253906 1707.863403,427.839264 1705.262939,424.325256 
	C1694.190430,409.362793 1678.480591,406.248291 1661.516235,409.768860 
	C1640.535889,414.122894 1628.171631,428.022949 1622.782349,449.390717 
M1313.316528,426.031677 
	C1318.444336,429.613861 1320.143188,434.749298 1320.131836,440.745331 
	C1320.108887,452.889618 1320.056274,465.035706 1320.235596,477.177795 
	C1320.341187,484.315399 1319.032104,490.613098 1313.133057,495.483765 
	C1311.812500,496.574127 1310.986328,499.457397 1311.428101,501.117340 
	C1311.793457,502.490051 1314.340454,504.135742 1315.962280,504.181396 
	C1326.260132,504.471283 1336.582520,504.662506 1346.869507,504.233276 
	C1352.027954,504.018036 1353.749634,499.222839 1349.890137,495.827087 
	C1343.697632,490.378906 1342.552368,483.562469 1342.611328,476.002228 
	C1342.767090,456.040161 1342.816895,436.077301 1342.900757,416.114685 
	C1342.929932,409.190521 1340.902710,407.282166 1334.502808,409.357849 
	C1327.728760,411.554962 1321.132446,414.364960 1314.609985,417.249512 
	C1310.687744,418.984131 1309.483887,421.904663 1313.316528,426.031677 
M1342.581787,375.090912 
	C1340.297241,370.626617 1336.627563,368.626984 1331.641846,368.760040 
	C1324.205566,368.958496 1316.318237,375.197357 1314.450195,382.467468 
	C1312.894775,388.520752 1316.056152,394.188080 1321.942871,395.633423 
	C1333.046753,398.359711 1346.972656,385.303070 1342.581787,375.090912 
z"/>
<path fill="#E6E6E6" opacity="1.000000" stroke="none" 
	d="
M2398.500000,913.000000 
	C2398.000000,609.303955 2398.000000,305.607941 2398.000000,1.455932 
	C2398.333252,1.166629 2398.943604,1.315903 2398.955566,1.502761 
	C2399.038818,2.830891 2399.000000,4.166667 2399.000000,5.500000 
	C2399.000000,308.000000 2399.000000,610.500000 2398.500000,913.000000 
z"/>
<path fill="#88E7FA" opacity="1.000000" stroke="none" 
	d="
M722.047241,429.580139 
	C743.935852,435.812469 749.124390,458.565887 739.019409,472.934296 
	C733.809265,480.342682 726.397827,484.295746 717.510193,484.903503 
	C698.552490,486.199982 688.069763,497.090332 688.050293,516.202332 
	C688.002441,563.195496 688.301331,610.191467 687.851440,657.180481 
	C687.679260,675.165039 680.843445,691.200562 669.395203,705.144775 
	C654.995789,722.683289 636.354309,733.276855 613.982422,735.470337 
	C599.512939,736.889099 584.603210,736.635986 570.174377,734.846191 
	C556.223022,733.115601 548.700012,720.798218 548.937073,705.385742 
	C549.085938,695.711914 559.154541,681.589417 571.460815,680.945312 
	C582.079407,680.389587 592.760132,679.635864 603.347656,680.200928 
	C618.569153,681.013245 632.474365,666.788513 632.269714,651.189880 
	C631.683777,606.537354 632.018982,561.872070 632.088440,517.211975 
	C632.115540,499.770416 635.573547,483.184296 645.336060,468.357513 
	C647.069275,465.725189 648.718994,462.952545 650.894836,460.719849 
	C653.274231,458.278259 653.280701,456.282623 651.200867,453.831024 
	C641.587524,442.499420 635.965881,429.305389 633.519714,414.765137 
	C632.641907,409.547272 632.139893,404.201752 632.127319,398.912903 
	C632.019958,353.753021 631.619141,308.585999 632.302612,263.436188 
	C632.545715,247.381683 618.691467,232.699951 602.462585,233.770462 
	C591.898315,234.467331 581.128174,234.049652 570.606079,232.809525 
	C560.306946,231.595673 553.496704,224.574188 550.341736,214.972321 
	C547.092407,205.083252 548.573242,195.661560 555.867310,187.513565 
	C561.828918,180.853973 569.085632,177.627975 577.959106,178.007355 
	C592.719238,178.638428 607.686401,177.980881 622.193665,180.249512 
	C655.034058,185.385056 683.112854,215.852554 687.013245,248.834991 
	C687.635559,254.097763 687.985901,259.424805 687.995056,264.722931 
	C688.071594,309.049774 688.008301,353.376801 688.069214,397.703705 
	C688.079468,405.125793 689.290161,412.422668 694.089417,418.384308 
	C699.566406,425.187927 706.713989,429.063385 715.701111,429.021027 
	C717.685303,429.011658 719.670776,429.288025 722.047241,429.580139 
z"/>
<path fill="#88E7FA" opacity="1.000000" stroke="none" 
	d="
M188.071716,446.322876 
	C194.115067,434.213226 203.629776,428.890991 216.800446,428.857574 
	C227.983780,428.829193 239.318939,418.236847 240.936417,407.086639 
	C241.577637,402.666412 241.910690,398.162231 241.918762,393.695465 
	C242.000397,348.374329 241.619553,303.048737 242.149185,257.733521 
	C242.423248,234.284042 252.577164,214.950516 270.015106,199.197723 
	C287.011475,183.843765 307.023407,177.556732 329.513184,178.019226 
	C339.972748,178.234329 350.526276,177.894638 360.857025,179.215576 
	C370.914398,180.501572 382.366760,193.218445 381.128204,208.145355 
	C380.151398,219.917892 371.013000,231.509186 358.904114,232.877243 
	C348.209503,234.085526 337.294464,234.359009 326.542145,233.796204 
	C311.341827,233.000565 297.573608,247.378372 297.746399,262.416473 
	C298.269012,307.898407 298.054474,353.390656 297.871704,398.877869 
	C297.797852,417.244324 293.051544,434.351746 282.262329,449.530457 
	C277.018738,456.907440 277.008942,457.019592 282.161682,464.257538 
	C292.960815,479.426788 297.775787,496.530518 297.861816,514.889587 
	C298.073364,560.043335 298.397186,605.205994 297.686035,650.349487 
	C297.430420,666.576477 311.189331,681.378357 327.816772,680.224182 
	C338.045441,679.514160 348.504120,679.803162 358.672821,681.103333 
	C372.817169,682.911804 381.337830,694.529602 381.023712,709.561829 
	C380.759216,722.219482 370.026062,735.250671 357.235840,735.619751 
	C339.205658,736.140015 320.885498,738.322083 303.142914,732.956055 
	C273.556030,724.007874 253.812378,704.787659 245.199905,675.016968 
	C242.932373,667.178833 242.153336,658.676758 242.099792,650.470337 
	C241.809616,605.984009 242.041199,561.494507 241.850937,517.007141 
	C241.829315,511.953491 241.150818,506.561462 239.287201,501.925171 
	C234.891571,490.989838 226.027252,485.463135 214.377335,485.064850 
	C192.916367,484.331085 180.909103,464.151672 188.071716,446.322876 
z"/>
<path fill="#FD7202" opacity="1.000000" stroke="none" 
	d="
M1770.735107,384.205963 
	C1781.962402,410.875977 1793.046753,437.192810 1804.704834,464.871918 
	C1806.227905,461.928467 1807.158691,460.293365 1807.942383,458.590637 
	C1820.886841,430.468506 1833.917358,402.385101 1846.645874,374.165436 
	C1848.928101,369.105774 1852.163574,367.140686 1857.451416,367.386047 
	C1863.601318,367.671478 1869.779907,367.453400 1875.913208,367.902069 
	C1877.565186,368.022858 1880.129517,369.532806 1880.428833,370.830841 
	C1880.817627,372.516754 1879.949585,375.505646 1878.600952,376.409668 
	C1871.477905,381.184387 1870.621460,387.970428 1870.923828,395.699554 
	C1871.998169,423.162811 1872.809692,450.636444 1873.693604,478.106995 
	C1873.894287,484.343658 1876.198242,489.381012 1881.538940,492.895416 
	C1884.347290,494.743256 1886.939087,497.547180 1885.116943,500.686493 
	C1883.948120,502.700134 1880.418091,504.284393 1877.875488,504.392914 
	C1868.063721,504.811737 1858.211548,504.825165 1848.401245,504.387054 
	C1845.647705,504.264038 1842.986328,502.077911 1840.282593,500.838104 
	C1841.706543,498.039764 1842.495483,494.514984 1844.689209,492.597351 
	C1848.995972,488.832611 1850.867065,484.383698 1850.766602,478.986938 
	C1850.279419,452.841614 1849.689209,426.698242 1849.121460,400.554474 
	C1849.115234,400.265717 1848.920288,399.981079 1848.556885,399.006531 
	C1847.607788,400.786682 1846.812744,402.111389 1846.170898,403.506592 
	C1833.020386,432.083130 1819.912964,460.679565 1806.697876,489.226135 
	C1805.753052,491.267059 1804.394287,493.435425 1802.627075,494.714142 
	C1798.084717,498.001099 1793.563843,496.250458 1791.257568,490.746307 
	C1779.231567,462.046234 1767.202637,433.347412 1755.167603,404.651154 
	C1754.733032,403.614899 1754.223999,402.609863 1752.853394,401.603882 
	C1752.543335,405.546478 1752.074463,409.484070 1751.949829,413.432495 
	C1751.250977,435.576996 1750.725708,457.727295 1749.932007,479.868164 
	C1749.712402,485.994873 1751.513428,490.788940 1756.209473,494.869019 
	C1757.776733,496.230743 1759.023926,499.305939 1758.596069,501.182556 
	C1758.268555,502.618591 1755.116821,504.226624 1753.149414,504.325684 
	C1746.175171,504.676880 1739.155640,504.653656 1732.186035,504.230316 
	C1730.209839,504.110291 1726.999390,502.371460 1726.762817,500.968750 
	C1726.450195,499.116364 1727.975464,496.128082 1729.645386,494.916534 
	C1735.473145,490.688538 1737.703491,485.019257 1737.967773,478.162048 
	C1739.057861,449.874817 1740.119263,421.586090 1741.352417,393.304993 
	C1741.634277,386.840088 1739.890869,381.700684 1734.723145,377.471466 
	C1733.001343,376.062439 1731.607178,372.866852 1731.952759,370.804474 
	C1732.183960,369.424805 1735.700806,367.804047 1737.828979,367.679047 
	C1744.802246,367.269318 1751.849854,367.078522 1758.788696,367.700562 
	C1761.218750,367.918396 1764.120972,370.274841 1765.556519,372.472046 
	C1767.795654,375.899353 1768.967773,380.023773 1770.735107,384.205963 
z"/>
<path fill="#FD7202" opacity="1.000000" stroke="none" 
	d="
M1483.127319,379.906067 
	C1479.944336,377.409790 1475.263794,375.993134 1476.860107,371.076172 
	C1478.439331,366.211487 1483.246826,367.534332 1486.782837,367.528320 
	C1504.607910,367.497986 1522.466431,367.168732 1540.251709,368.109436 
	C1570.086670,369.687408 1595.241333,385.248199 1604.035645,413.309723 
	C1612.515381,440.367218 1604.466919,478.230347 1575.496704,494.816528 
	C1564.541138,501.088837 1552.610840,504.075500 1540.170044,504.369446 
	C1521.848145,504.802338 1503.509766,504.556641 1485.178467,504.570251 
	C1483.853516,504.571259 1482.361084,504.671509 1481.242798,504.122314 
	C1479.597290,503.314087 1477.230835,502.149658 1476.974243,500.795441 
	C1476.646729,499.067291 1477.552734,495.995514 1478.901123,495.239075 
	C1487.965088,490.154022 1488.849854,481.682190 1488.865601,472.784546 
	C1488.909058,448.119751 1488.953125,423.454437 1488.831787,398.790161 
	C1488.798950,392.138519 1488.665405,385.346832 1483.127319,379.906067 
M1581.680054,458.876587 
	C1581.777832,449.439148 1582.784180,439.906738 1581.809448,430.581390 
	C1578.365356,397.630829 1552.641602,375.950195 1519.972290,377.715118 
	C1513.675293,378.055298 1511.830688,379.750488 1511.821777,385.851776 
	C1511.774658,418.151215 1511.777222,450.450775 1511.832275,482.750183 
	C1511.842651,488.877350 1513.886230,491.897156 1520.017090,492.780334 
	C1526.711426,493.744720 1533.613525,494.147919 1540.357666,493.724243 
	C1562.857910,492.310638 1576.113770,481.096069 1581.680054,458.876587 
z"/>
<path fill="#FD7202" opacity="1.000000" stroke="none" 
	d="
M2221.785156,399.652649 
	C2222.547363,411.139069 2213.971924,413.877869 2205.927002,417.346405 
	C2206.206299,418.023407 2206.290771,418.731415 2206.687988,419.118835 
	C2222.452148,434.493256 2216.657715,461.938873 2194.323242,471.975555 
	C2182.130371,477.454773 2169.606934,478.412811 2156.775635,475.144928 
	C2153.400146,474.285278 2150.930908,474.361237 2149.304688,477.756042 
	C2147.554932,481.409332 2147.902100,485.301453 2151.382080,486.975281 
	C2155.730225,489.066803 2160.746826,490.697937 2165.512451,490.801880 
	C2175.809326,491.026398 2186.127197,489.963013 2196.442383,489.805664 
	C2201.388184,489.730225 2206.483154,489.922363 2211.274658,491.021790 
	C2227.554443,494.757202 2234.145264,510.882874 2225.523438,525.302185 
	C2220.247314,534.125732 2211.833252,538.861145 2202.418213,541.688660 
	C2185.163818,546.870605 2167.632324,547.513977 2150.173096,542.778076 
	C2145.598389,541.537170 2141.098145,539.351379 2137.106934,536.762085 
	C2126.520996,529.894897 2125.969971,516.499878 2135.618896,508.365051 
	C2136.982422,507.215729 2138.426270,506.161591 2139.850830,505.049438 
	C2124.758301,488.521057 2125.265869,483.322418 2143.276611,469.858124 
	C2142.771484,469.250458 2142.362793,468.545166 2141.768311,468.075195 
	C2125.816162,455.461700 2128.243408,432.350861 2144.210938,419.627747 
	C2154.989746,411.039429 2167.560059,407.269104 2181.120850,408.845398 
	C2191.910400,410.099579 2200.187256,407.511505 2206.952393,398.762268 
	C2212.136719,392.057068 2217.276367,392.571625 2221.785156,399.652649 
M2193.161133,443.630249 
	C2191.511475,438.134064 2190.665283,432.209320 2188.018311,427.244781 
	C2184.293457,420.258545 2177.597412,416.996246 2169.567383,418.137207 
	C2161.379150,419.300659 2156.020020,424.216888 2153.958740,432.259827 
	C2151.364990,442.383331 2153.466064,451.755920 2159.669189,460.039886 
	C2164.550537,466.558563 2171.525391,468.366760 2179.249023,466.952118 
	C2185.949463,465.724792 2190.001953,461.101227 2191.906494,454.862000 
	C2192.902832,451.598694 2192.819336,448.005707 2193.161133,443.630249 
M2150.796387,527.561218 
	C2154.154297,529.612061 2157.317627,532.901733 2160.908936,533.465332 
	C2169.352051,534.790466 2178.040039,535.557068 2186.549805,535.093994 
	C2191.950928,534.800049 2197.487061,532.454102 2202.454346,529.999817 
	C2207.357178,527.577209 2209.257324,521.826721 2208.027100,516.692444 
	C2206.848389,511.773651 2203.096191,509.235291 2198.561523,509.230988 
	C2185.265137,509.218384 2171.910889,509.163269 2158.690186,510.353088 
	C2148.760010,511.246796 2145.428223,520.302246 2150.796387,527.561218 
z"/>
<path fill="#FD7202" opacity="1.000000" stroke="none" 
	d="
M1262.433350,384.885468 
	C1264.116943,381.525604 1263.819214,379.021576 1261.390381,376.371094 
	C1260.166138,375.035156 1259.259033,372.186035 1259.876221,370.726501 
	C1260.503052,369.244568 1263.156494,367.834381 1264.967773,367.775024 
	C1272.777222,367.519196 1280.613281,367.579102 1288.415894,367.983887 
	C1290.179932,368.075378 1293.229248,369.984497 1293.249146,371.100250 
	C1293.281738,372.936218 1291.742798,375.850952 1290.137817,376.494873 
	C1279.598755,380.723358 1273.391724,389.292145 1267.189819,398.041077 
	C1259.870117,408.366821 1252.427612,418.608398 1244.861450,428.754578 
	C1243.071533,431.154938 1242.925903,432.764740 1244.801880,435.246429 
	C1256.753418,451.056915 1268.302368,467.177460 1280.502686,482.790436 
	C1283.992065,487.255981 1289.362671,490.207947 1293.543213,494.196991 
	C1295.377930,495.947571 1296.392334,498.557861 1297.779175,500.777771 
	C1295.617065,502.011963 1293.483887,504.250427 1291.288208,504.313629 
	C1279.137207,504.663483 1266.966919,504.641174 1254.813599,504.336273 
	C1252.690186,504.282990 1249.504639,502.712952 1248.850098,501.043365 
	C1248.266113,499.554321 1250.017456,496.437866 1251.598022,494.957550 
	C1255.061523,491.713806 1255.484253,488.225494 1252.963257,484.721344 
	C1243.735352,471.894653 1234.266357,459.241455 1224.455200,445.935669 
	C1222.940674,447.816925 1221.772949,449.138031 1220.747437,450.561523 
	C1213.057007,461.236816 1205.393677,471.931702 1197.723389,482.621613 
	C1192.995361,489.211029 1192.979980,489.901001 1197.375977,496.930359 
	C1199.418945,500.197144 1198.293823,503.719757 1194.294189,503.943085 
	C1185.520386,504.433044 1176.692139,504.181366 1167.899902,503.855957 
	C1166.541260,503.805695 1164.449463,501.932526 1164.165405,500.591309 
	C1163.883545,499.260529 1165.078247,496.614075 1166.272827,496.124603 
	C1183.181885,489.196136 1189.920288,472.812775 1200.255493,459.829834 
	C1205.331909,453.453156 1209.759766,446.564026 1214.661011,440.042114 
	C1216.526978,437.559235 1216.833130,435.631836 1214.834106,432.990692 
	C1204.080322,418.781433 1193.717163,404.269287 1182.697510,390.272491 
	C1179.074341,385.670502 1173.758057,382.434235 1169.478271,378.301880 
	C1167.510132,376.401459 1164.923340,373.897034 1164.829102,371.576721 
	C1164.666382,367.566681 1168.815552,367.656464 1171.672974,367.613708 
	C1183.332031,367.439240 1194.999512,367.359955 1206.652954,367.664001 
	C1208.948608,367.723938 1212.415771,369.138611 1213.109985,370.839691 
	C1213.757812,372.426971 1211.944580,375.729767 1210.310059,377.383209 
	C1207.290771,380.437439 1206.810425,383.580139 1209.098755,386.775940 
	C1217.611450,398.665100 1226.348022,410.394165 1235.555054,422.938965 
	C1244.785767,409.890839 1253.508301,397.560913 1262.433350,384.885468 
z"/>
<path fill="#FD7202" opacity="1.000000" stroke="none" 
	d="
M1022.033691,437.880493 
	C1025.022583,452.616638 1028.047607,466.935883 1030.769897,481.312500 
	C1031.772095,486.604980 1033.961182,490.897430 1037.828857,494.692688 
	C1039.463623,496.296875 1040.875366,499.410736 1040.436523,501.410004 
	C1040.126343,502.822968 1036.564453,504.308838 1034.402222,504.390930 
	C1025.587769,504.725494 1016.744385,504.747803 1007.931946,504.388397 
	C1005.595398,504.293091 1003.331116,502.425659 1001.033691,501.371948 
	C1002.077881,499.130096 1002.602722,496.343445 1004.269409,494.754486 
	C1008.320862,490.892151 1009.542725,486.711151 1008.411133,481.254547 
	C1005.777649,468.555725 1003.518188,455.779572 1001.056396,443.044556 
	C1000.710693,441.256317 1000.164124,439.493927 999.566345,437.769592 
	C996.816650,429.838226 992.313416,423.860291 983.052490,423.458679 
	C973.733215,423.054504 965.965942,427.944977 962.121216,436.762238 
	C961.065613,439.183044 959.871643,441.792847 959.792847,444.348358 
	C959.377991,457.791351 958.935913,471.256317 959.363586,484.686279 
	C959.469482,488.011200 962.895752,491.174713 964.570557,494.524963 
	C965.675598,496.735474 967.428650,499.421326 966.917542,501.378998 
	C966.532288,502.854553 963.044617,504.319519 960.889282,504.394592 
	C951.740845,504.713196 942.566650,504.708405 933.420044,504.353851 
	C931.283081,504.270966 927.806152,502.683441 927.464417,501.205658 
	C927.004395,499.216644 928.369141,495.968689 930.038330,494.483429 
	C934.752747,490.288666 936.133240,484.983124 936.152283,479.218506 
	C936.240662,452.401367 936.193054,425.583557 936.100281,398.766266 
	C936.078247,392.409760 934.642517,386.711639 928.915588,382.607117 
	C925.584045,380.219421 925.990051,376.152863 929.710632,374.535492 
	C937.159180,371.297485 944.788452,368.393555 952.530884,365.945496 
	C956.877380,364.571228 958.658325,366.492889 958.668701,371.702606 
	C958.699036,386.860046 958.599854,402.017761 958.553040,417.175354 
	C958.547668,418.904694 958.552307,420.634064 958.552307,422.255615 
	C964.354126,418.408844 969.254211,413.782135 975.072754,411.558899 
	C992.929504,404.735870 1011.665771,408.650604 1019.396362,429.924683 
	C1020.304749,432.424408 1021.101257,434.964783 1022.033691,437.880493 
z"/>
<path fill="#FD7202" opacity="1.000000" stroke="none" 
	d="
M870.399780,505.373322 
	C848.038757,508.447784 827.804626,504.805756 810.811829,489.591797 
	C800.647583,480.491486 795.274109,468.685059 792.277527,455.522827 
	C784.766113,422.529938 800.793884,387.557648 830.773071,372.606232 
	C845.615295,365.203979 861.229919,363.951050 877.492798,367.180603 
	C882.146362,368.104736 887.334961,367.480713 892.068420,366.526306 
	C896.590759,365.614441 900.104797,366.214935 901.266479,370.680176 
	C904.145752,381.747223 906.612671,392.930023 908.855652,404.144196 
	C909.162109,405.676605 907.626221,408.621490 906.252258,409.164886 
	C904.752197,409.758087 901.824036,408.912201 900.619507,407.645996 
	C897.777527,404.658417 895.568665,401.063690 893.140381,397.688171 
	C880.386780,379.959839 862.192993,373.360291 843.448486,380.106934 
	C829.071716,385.281464 820.910645,396.407043 817.132019,410.613037 
	C812.246948,428.979218 814.136353,446.985321 822.665771,464.019928 
	C838.112976,494.870575 876.217651,500.876038 901.824829,476.651154 
	C902.792542,475.735718 903.557373,474.424957 904.693848,473.909302 
	C906.592651,473.047821 908.715637,472.680267 910.744202,472.104736 
	C910.946655,474.395752 912.203125,477.511505 911.168152,478.834320 
	C906.814697,484.398315 902.298584,490.067596 896.862122,494.495087 
	C889.417236,500.558167 880.286499,503.564911 870.399780,505.373322 
z"/>
<path fill="#FD7202" opacity="1.000000" stroke="none" 
	d="
M2081.236816,503.005249 
	C2078.182617,499.949554 2079.512207,497.453705 2081.989746,495.617096 
	C2087.663086,491.411530 2088.261475,485.934784 2086.940186,479.574921 
	C2084.166992,466.222778 2082.107910,452.701385 2078.818848,439.482605 
	C2074.872070,423.619568 2059.499023,418.152679 2047.691772,427.859894 
	C2042.145264,432.419769 2038.730347,438.597473 2038.304688,445.515350 
	C2037.540161,457.943451 2037.382446,470.455292 2037.929321,482.889984 
	C2038.098999,486.748322 2041.406860,490.452606 2043.205566,494.261627 
	C2044.273926,496.524170 2046.432983,499.269684 2045.837280,501.032990 
	C2045.268066,502.717896 2041.801880,504.293182 2039.546021,504.386383 
	C2030.566406,504.757385 2021.552856,504.752472 2012.573730,504.370728 
	C2010.297852,504.273956 2006.873535,502.737000 2006.220703,501.012329 
	C2005.581543,499.324280 2007.211182,495.898682 2008.884155,494.381775 
	C2013.520874,490.177887 2014.984253,484.964996 2015.027466,479.147308 
	C2015.123901,466.153961 2015.035400,453.159363 2015.068359,440.165405 
	C2015.082642,434.538147 2013.355713,429.890442 2008.823486,426.158417 
	C2003.906372,422.109406 2004.515747,418.259247 2010.475586,415.686707 
	C2015.804565,413.386597 2021.320923,411.452911 2026.879761,409.771118 
	C2033.094360,407.890900 2034.842773,409.343170 2034.880249,415.681732 
	C2034.899536,418.954742 2034.883667,422.227936 2035.914795,425.987000 
	C2037.012939,424.684540 2038.089111,423.362732 2039.212891,422.082825 
	C2049.376221,410.507141 2062.247559,406.690521 2077.068604,409.515930 
	C2085.401123,411.104340 2091.279541,416.390503 2095.328613,423.812775 
	C2101.767578,435.615845 2103.142578,448.812225 2105.853516,461.636353 
	C2107.125244,467.652985 2108.154297,473.722290 2109.223633,479.780029 
	C2110.291748,485.834015 2112.420410,491.132294 2117.410889,495.274261 
	C2121.456055,498.631775 2120.689453,503.755951 2116.262695,503.878998 
	C2104.708008,504.200134 2093.125000,503.501892 2081.236816,503.005249 
z"/>
<path fill="#FD7202" opacity="1.000000" stroke="none" 
	d="
M1081.106445,409.197937 
	C1081.945923,411.401062 1082.848022,413.427063 1082.860107,415.458344 
	C1082.958252,431.942688 1082.818359,448.428528 1082.923584,464.912781 
	C1082.948975,468.884857 1083.350952,472.899780 1084.039185,476.814148 
	C1086.392212,490.196533 1098.486450,495.917572 1110.421997,489.315369 
	C1119.480469,484.304626 1124.116455,476.155579 1124.790405,466.153198 
	C1125.415771,456.869995 1125.004395,447.513428 1124.953735,438.189697 
	C1124.927490,433.389099 1122.748169,429.631409 1119.063232,426.586731 
	C1114.066528,422.458130 1114.303589,419.319794 1120.260986,416.654266 
	C1126.618774,413.809631 1133.169922,411.293518 1139.825562,409.249023 
	C1145.776733,407.420929 1147.781250,409.221466 1147.781738,415.527832 
	C1147.783081,434.510529 1147.844604,453.495117 1147.587280,472.474976 
	C1147.482544,480.192444 1147.846924,487.082367 1156.578857,490.444092 
	C1159.692383,491.642700 1159.685059,494.838043 1157.143921,496.972382 
	C1150.173706,502.827026 1141.809692,505.736664 1132.916382,506.418365 
	C1128.338379,506.769257 1126.552979,502.813873 1126.072021,498.659058 
	C1125.791992,496.238953 1125.729736,493.793701 1125.484497,490.069855 
	C1123.019409,492.430511 1121.481689,494.040833 1119.803223,495.488129 
	C1108.607056,505.142792 1096.004883,509.544678 1081.499023,504.499268 
	C1066.826416,499.395874 1061.964355,487.267487 1061.036011,473.172821 
	C1060.347534,462.719543 1060.514771,452.205322 1060.450073,441.717285 
	C1060.411255,435.426514 1059.038330,429.914825 1053.624268,425.911377 
	C1050.889038,423.888885 1049.387939,420.492279 1052.859741,418.486542 
	C1061.458740,413.518829 1070.372437,408.954590 1081.106445,409.197937 
z"/>
<path fill="#FD7202" opacity="1.000000" stroke="none" 
	d="
M1436.136475,419.878143 
	C1444.339355,430.252319 1445.784668,442.734467 1448.838745,454.600739 
	C1451.119141,463.460876 1452.983276,472.427277 1455.125610,481.324036 
	C1456.372192,486.500732 1458.665039,490.645020 1464.879028,491.026031 
	C1468.685425,491.259430 1468.692871,493.963043 1467.308228,496.418823 
	C1463.595093,503.004639 1457.375854,505.497498 1450.194580,505.844391 
	C1443.623657,506.161804 1439.052490,503.146484 1436.621704,496.958282 
	C1436.037476,495.470856 1435.271362,494.054871 1434.424072,492.256470 
	C1431.479980,494.534760 1429.019775,496.765381 1426.257935,498.521362 
	C1411.260010,508.057404 1395.445190,508.962769 1379.662231,501.245178 
	C1369.497192,496.274719 1363.803711,487.412140 1364.352295,475.753967 
	C1364.933228,463.408417 1371.850586,455.108276 1382.766968,449.907990 
	C1394.183594,444.469330 1406.241943,444.278381 1418.477295,445.646057 
	C1420.413086,445.862427 1422.343750,446.124512 1424.381226,446.378448 
	C1422.301025,427.617462 1411.197876,419.561096 1393.643799,424.048615 
	C1388.702393,425.311768 1384.119263,427.920715 1379.244629,429.525909 
	C1377.126709,430.223267 1374.687500,429.944092 1372.394165,430.108429 
	C1373.089111,427.756317 1373.095703,424.761108 1374.593018,423.158600 
	C1383.062134,414.094208 1393.906494,409.930420 1406.132812,408.992584 
	C1417.646484,408.109375 1428.031738,410.326263 1436.136475,419.878143 
M1394.986450,490.620728 
	C1404.914917,496.678497 1414.892334,495.860962 1424.079590,489.567596 
	C1427.466187,487.247803 1431.479126,482.598572 1431.378540,479.122742 
	C1431.182373,472.359039 1429.646851,464.765656 1426.001099,459.290314 
	C1423.750244,455.909698 1416.639282,455.555603 1411.589600,454.346680 
	C1409.443848,453.832977 1406.982910,454.552673 1404.676147,454.809814 
	C1396.483765,455.723083 1389.917969,459.092224 1387.165161,467.409607 
	C1384.415649,475.717163 1387.244751,484.158051 1394.986450,490.620728 
z"/>
<path fill="#FD7202" opacity="1.000000" stroke="none" 
	d="
M1904.851562,437.860413 
	C1916.671631,414.690338 1938.486206,404.149353 1962.674194,410.197876 
	C1977.179077,413.825043 1986.205933,423.353241 1989.655884,437.988647 
	C1990.828979,442.964966 1987.927246,445.416168 1983.838257,447.009155 
	C1972.526123,451.416168 1961.226074,455.856079 1949.873169,460.156372 
	C1941.833008,463.201904 1933.714722,466.041412 1925.714355,468.942749 
	C1927.959961,479.617798 1940.419067,489.175201 1951.971802,490.041626 
	C1964.080811,490.949768 1974.019409,486.536591 1983.007202,478.858124 
	C1984.894653,477.245544 1988.741577,475.231995 1989.950684,476.030365 
	C1993.425171,478.324646 1991.023926,481.815216 1989.466675,484.374512 
	C1982.156372,496.389496 1970.845825,502.461365 1957.482300,505.407501 
	C1936.361816,510.063782 1915.368042,501.540161 1905.688232,483.533600 
	C1897.760010,468.785156 1898.517090,453.462006 1904.851562,437.860413 
M1936.776367,454.323669 
	C1944.866455,451.331268 1952.960327,448.348938 1961.044678,445.341339 
	C1964.069580,444.215973 1966.249878,442.497131 1965.932861,438.780151 
	C1965.241211,430.671326 1956.849121,421.258636 1948.816284,420.071320 
	C1939.525757,418.698120 1931.536987,421.196259 1926.296753,429.395416 
	C1920.458252,438.531128 1919.712891,448.398468 1922.671387,459.016876 
	C1927.584473,457.412537 1931.819702,456.029572 1936.776367,454.323669 
z"/>
<path fill="#FD7202" opacity="1.000000" stroke="none" 
	d="
M1622.882080,448.976990 
	C1628.171631,428.022949 1640.535889,414.122894 1661.516235,409.768860 
	C1678.480591,406.248291 1694.190430,409.362793 1705.262939,424.325256 
	C1707.863403,427.839264 1709.427002,432.253906 1710.866821,436.459869 
	C1712.715942,441.861420 1711.468994,444.529541 1706.097290,446.722778 
	C1695.005249,451.251648 1683.822266,455.563446 1672.619263,459.813171 
	C1665.619263,462.468506 1658.581909,465.065460 1651.432251,467.270691 
	C1646.988525,468.641357 1647.022827,470.703522 1649.022583,474.182190 
	C1657.238281,488.473785 1675.439209,494.413422 1691.272461,487.247742 
	C1696.485229,484.888580 1700.907104,480.826202 1705.853271,477.809479 
	C1707.615845,476.734375 1709.859985,476.448730 1711.884277,475.802673 
	C1711.939453,478.111176 1712.765137,480.763336 1711.915405,482.668274 
	C1708.383423,490.586517 1702.068237,496.104553 1694.474487,499.893921 
	C1676.592163,508.817169 1658.521118,509.716492 1641.218750,498.732788 
	C1628.691772,490.780518 1622.612793,478.603088 1622.088745,463.829346 
	C1621.918701,459.030701 1622.529053,454.204376 1622.882080,448.976990 
M1685.458984,432.241852 
	C1681.744873,425.195312 1676.351685,420.494537 1668.077026,419.867279 
	C1659.155640,419.191010 1652.186890,422.490997 1647.479126,430.189758 
	C1641.955444,439.223145 1642.053223,448.799286 1644.294800,459.363647 
	C1656.587646,454.932800 1668.156494,450.894226 1679.624512,446.587433 
	C1688.608032,443.213684 1688.985718,442.103088 1685.458984,432.241852 
z"/>
<path fill="#FD7202" opacity="1.000000" stroke="none" 
	d="
M1313.033447,425.785400 
	C1309.483887,421.904663 1310.687744,418.984131 1314.609985,417.249512 
	C1321.132446,414.364960 1327.728760,411.554962 1334.502808,409.357849 
	C1340.902710,407.282166 1342.929932,409.190521 1342.900757,416.114685 
	C1342.816895,436.077301 1342.767090,456.040161 1342.611328,476.002228 
	C1342.552368,483.562469 1343.697632,490.378906 1349.890137,495.827087 
	C1353.749634,499.222839 1352.027954,504.018036 1346.869507,504.233276 
	C1336.582520,504.662506 1326.260132,504.471283 1315.962280,504.181396 
	C1314.340454,504.135742 1311.793457,502.490051 1311.428101,501.117340 
	C1310.986328,499.457397 1311.812500,496.574127 1313.133057,495.483765 
	C1319.032104,490.613098 1320.341187,484.315399 1320.235596,477.177795 
	C1320.056274,465.035706 1320.108887,452.889618 1320.131836,440.745331 
	C1320.143188,434.749298 1318.444336,429.613861 1313.033447,425.785400 
z"/>
<path fill="#FD7202" opacity="1.000000" stroke="none" 
	d="
M1342.729370,375.439941 
	C1346.972656,385.303070 1333.046753,398.359711 1321.942871,395.633423 
	C1316.056152,394.188080 1312.894775,388.520752 1314.450195,382.467468 
	C1316.318237,375.197357 1324.205566,368.958496 1331.641846,368.760040 
	C1336.627563,368.626984 1340.297241,370.626617 1342.729370,375.439941 
z"/>
<path fill="#F7F1DF" opacity="1.000000" stroke="none" 
	d="
M1581.559082,459.281982 
	C1576.113770,481.096069 1562.857910,492.310638 1540.357666,493.724243 
	C1533.613525,494.147919 1526.711426,493.744720 1520.017090,492.780334 
	C1513.886230,491.897156 1511.842651,488.877350 1511.832275,482.750183 
	C1511.777222,450.450775 1511.774658,418.151215 1511.821777,385.851776 
	C1511.830688,379.750488 1513.675293,378.055298 1519.972290,377.715118 
	C1552.641602,375.950195 1578.365356,397.630829 1581.809448,430.581390 
	C1582.784180,439.906738 1581.777832,449.439148 1581.559082,459.281982 
z"/>
<path fill="#F7F0DE" opacity="1.000000" stroke="none" 
	d="
M2193.192139,444.095886 
	C2192.819336,448.005707 2192.902832,451.598694 2191.906494,454.862000 
	C2190.001953,461.101227 2185.949463,465.724792 2179.249023,466.952118 
	C2171.525391,468.366760 2164.550537,466.558563 2159.669189,460.039886 
	C2153.466064,451.755920 2151.364990,442.383331 2153.958740,432.259827 
	C2156.020020,424.216888 2161.379150,419.300659 2169.567383,418.137207 
	C2177.597412,416.996246 2184.293457,420.258545 2188.018311,427.244781 
	C2190.665283,432.209320 2191.511475,438.134064 2193.192139,444.095886 
z"/>
<path fill="#F7EFDD" opacity="1.000000" stroke="none" 
	d="
M2150.554199,527.272949 
	C2145.428223,520.302246 2148.760010,511.246796 2158.690186,510.353088 
	C2171.910889,509.163269 2185.265137,509.218384 2198.561523,509.230988 
	C2203.096191,509.235291 2206.848389,511.773651 2208.027100,516.692444 
	C2209.257324,521.826721 2207.357178,527.577209 2202.454346,529.999817 
	C2197.487061,532.454102 2191.950928,534.800049 2186.549805,535.093994 
	C2178.040039,535.557068 2169.352051,534.790466 2160.908936,533.465332 
	C2157.317627,532.901733 2154.154297,529.612061 2150.554199,527.272949 
z"/>
<path fill="#F7EFDD" opacity="1.000000" stroke="none" 
	d="
M1394.696899,490.394318 
	C1387.244751,484.158051 1384.415649,475.717163 1387.165161,467.409607 
	C1389.917969,459.092224 1396.483765,455.723083 1404.676147,454.809814 
	C1406.982910,454.552673 1409.443848,453.832977 1411.589600,454.346680 
	C1416.639282,455.555603 1423.750244,455.909698 1426.001099,459.290314 
	C1429.646851,464.765656 1431.182373,472.359039 1431.378540,479.122742 
	C1431.479126,482.598572 1427.466187,487.247803 1424.079590,489.567596 
	C1414.892334,495.860962 1404.914917,496.678497 1394.696899,490.394318 
z"/>
<path fill="#F7EFDD" opacity="1.000000" stroke="none" 
	d="
M1936.415527,454.485138 
	C1931.819702,456.029572 1927.584473,457.412537 1922.671387,459.016876 
	C1919.712891,448.398468 1920.458252,438.531128 1926.296753,429.395416 
	C1931.536987,421.196259 1939.525757,418.698120 1948.816284,420.071320 
	C1956.849121,421.258636 1965.241211,430.671326 1965.932861,438.780151 
	C1966.249878,442.497131 1964.069580,444.215973 1961.044678,445.341339 
	C1952.960327,448.348938 1944.866455,451.331268 1936.415527,454.485138 
z"/>
<path fill="#F7EFDD" opacity="1.000000" stroke="none" 
	d="
M1685.631348,432.578125 
	C1688.985718,442.103088 1688.608032,443.213684 1679.624512,446.587433 
	C1668.156494,450.894226 1656.587646,454.932800 1644.294800,459.363647 
	C1642.053223,448.799286 1641.955444,439.223145 1647.479126,430.189758 
	C1652.186890,422.490997 1659.155640,419.191010 1668.077026,419.867279 
	C1676.351685,420.494537 1681.744873,425.195312 1685.631348,432.578125 
z"/>
</svg>